<svg xmlns="http://www.w3.org/2000/svg" xmlns:xlink="http://www.w3.org/1999/xlink" style="position:absolute; width: 0; height: 0"><symbol viewBox="0 0 512.028 512.028" id="icon-bank"><path d="M503.481 494.947h-8.533v-25.6a8.533 8.533 0 0 0-8.533-8.533h-8.533v-307.2h25.6c8.819 0 11.844-11.745 4.122-16.005L260.136 1.076a8.532 8.532 0 0 0-8.245 0L4.425 137.609c-7.721 4.26-4.696 16.005 4.122 16.005h25.6v307.2h-8.533a8.533 8.533 0 0 0-8.533 8.533v25.6H8.547a8.533 8.533 0 0 0 0 17.066H503.48c4.713 0 8.533-3.82 8.533-8.533s-3.82-8.533-8.532-8.533zM162.147 153.614v273.067h-59.733V153.614h59.733zm119.467 0v273.067h-51.2V153.614h51.2zm128 0v273.067h-59.733V153.614h59.733zm-76.8 0v273.065h-34.133V153.614h34.133zm-119.467 0v273.065h-34.133V153.614h34.133zM195.38 473.163l1.908-3.816 12.8-25.6h91.852l14.708 29.416 10.892 21.784H184.488l10.892-21.784zm125.641-29.416h139.793v17.067h-131.26l-8.533-17.067zm139.793-17.068h-34.133V153.614h34.133v273.065zm-204.8-408.386L470.35 136.547h-.968l-.034-.002h-51.2l-.034.002h-76.732l-.034-.002h-51.2l-.034.002h-68.199l-.034-.002h-51.2l-.034.002H93.914l-.034-.002h-51.2l-.034.002h-.968L256.014 18.293zM85.347 153.614v273.065H51.214V153.614h34.133zM51.214 443.747h139.793l-8.533 17.067H51.214v-17.067zm-17.067 51.2V477.88H173.94l-8.533 17.067H34.147zm312.474 0l-8.533-17.067H477.88v17.067H346.621z"></path></symbol></svg>